<svg width="94" height="88" viewBox="0 0 94 88" fill="none" xmlns="http://www.w3.org/2000/svg">
<g filter="url(#filter0_d_103_3)">
<rect x="4" width="86" height="79.1843" rx="26" fill="black"/>
</g>
<g clip-path="url(#clip0_103_3)">
<path d="M42.8274 63.792C41.4002 62.7586 40.5665 61.7118 40.2751 60.5903C39.1945 56.4033 35.7052 53.347 31.7902 53.347C27.8757 53.347 24.2556 56.4033 23.1749 60.5923C22.8836 61.7098 22.0499 62.7586 20.6222 63.7936C18.8842 65.0555 18.0893 67.0071 18.5473 68.889C19.0979 71.1531 21.6062 73.1667 25.0371 73.1667C26.4878 73.1667 27.8654 72.7937 29.0191 72.0892C29.7854 71.6184 30.8282 71.3688 31.7866 71.3688C32.7446 71.3688 33.6544 71.6168 34.4309 72.0872C35.5882 72.7958 36.9581 73.1703 38.3955 73.1703C41.8245 73.1703 44.3481 71.167 44.9027 68.8895C45.3607 67.0071 44.5638 65.0535 42.8274 63.792Z" fill="#D7BE3F"/>
<path d="M21.8485 53.347C21.8485 51.0711 20.0533 47.4467 17.9242 47.4467C15.7957 47.4467 14 51.0711 14 53.347C14 55.5154 15.761 57.2804 17.9242 57.2804C20.0875 57.2804 21.8485 55.5154 21.8485 53.347Z" fill="#D7BE3F"/>
<path d="M45.5253 47.4467C43.3968 47.4467 41.6011 51.0711 41.6011 53.347C41.6011 55.5154 43.3621 57.2804 45.5253 57.2804C47.6886 57.2804 49.4496 55.5154 49.4496 53.347C49.4496 51.0711 47.6543 47.4467 45.5253 47.4467Z" fill="#D7BE3F"/>
<path d="M33.7526 45.4797C33.7526 47.6485 35.5135 49.4136 37.6768 49.4136C39.8401 49.4136 41.6011 47.6485 41.6011 45.4797C41.6011 43.2038 39.8058 39.5799 37.6768 39.5799C35.5478 39.5799 33.7526 43.2038 33.7526 45.4797Z" fill="#D7BE3F"/>
<path d="M25.7733 49.4136C27.9365 49.4136 29.6975 47.6485 29.6975 45.4797C29.6975 43.2038 27.9018 39.5799 25.7733 39.5799C23.6442 39.5799 21.8485 43.2038 21.8485 45.4797C21.8485 47.6485 23.6095 49.4136 25.7733 49.4136Z" fill="#D7BE3F"/>
<path d="M74.3528 30.2262C72.9256 29.1927 72.0919 28.0148 71.8005 26.8933C70.7199 22.7062 67.0998 19.7812 63.1847 19.7812C59.2702 19.7812 55.781 22.7062 54.7003 26.8953C54.409 28.0133 53.5753 29.1927 52.1476 30.2282C50.4096 31.4902 49.6147 33.4412 50.0727 35.3237C50.6233 37.5873 53.1316 39.6009 56.5625 39.6009C58.0132 39.6009 59.3908 39.2284 60.5445 38.5234C61.3108 38.0525 62.2227 37.803 63.1812 37.803C64.1391 37.803 65.1798 38.051 65.9563 38.5213C67.1136 39.2299 68.4835 39.605 69.9209 39.605C73.3498 39.605 75.8735 37.6011 76.4281 35.3237C76.8861 33.4412 76.0892 31.4881 74.3528 30.2262Z" fill="#D7BE3F"/>
<path d="M53.3744 19.7812C53.3744 17.5053 51.5787 13.8808 49.4496 13.8808C47.3211 13.8808 45.5254 17.5053 45.5254 19.7812C45.5254 21.9495 47.2864 23.7146 49.4496 23.7146C51.6134 23.7146 53.3744 21.9495 53.3744 19.7812Z" fill="#D7BE3F"/>
<path d="M77.0507 13.8808C74.9222 13.8808 73.1265 17.5053 73.1265 19.7812C73.1265 21.9495 74.8874 23.7146 77.0507 23.7146C79.2145 23.7146 80.9755 21.9495 80.9755 19.7812C80.9755 17.5053 79.1797 13.8808 77.0507 13.8808Z" fill="#D7BE3F"/>
<path d="M65.278 11.9144C65.278 14.0827 67.0389 15.8478 69.2022 15.8478C71.3655 15.8478 73.1264 14.0827 73.1264 11.9144C73.1264 9.63846 71.3312 6.01401 69.2022 6.01401C67.0732 6.01401 65.278 9.63846 65.278 11.9144Z" fill="#D7BE3F"/>
<path d="M53.3744 11.9144C53.3744 14.0827 55.1354 15.8478 57.2986 15.8478C59.4619 15.8478 61.2229 14.0827 61.2229 11.9144C61.2229 9.63846 59.4271 6.01401 57.2986 6.01401C55.1696 6.01401 53.3744 9.63846 53.3744 11.9144Z" fill="#D7BE3F"/>
</g>
<defs>
<filter id="filter0_d_103_3" x="0" y="0" width="94" height="87.1843" filterUnits="userSpaceOnUse" color-interpolation-filters="sRGB">
<feFlood flood-opacity="0" result="BackgroundImageFix"/>
<feColorMatrix in="SourceAlpha" type="matrix" values="0 0 0 0 0 0 0 0 0 0 0 0 0 0 0 0 0 0 127 0" result="hardAlpha"/>
<feOffset dy="4"/>
<feGaussianBlur stdDeviation="2"/>
<feComposite in2="hardAlpha" operator="out"/>
<feColorMatrix type="matrix" values="0 0 0 0 0 0 0 0 0 0 0 0 0 0 0 0 0 0 0.63 0"/>
<feBlend mode="normal" in2="BackgroundImageFix" result="effect1_dropShadow_103_3"/>
<feBlend mode="normal" in="SourceGraphic" in2="effect1_dropShadow_103_3" result="shape"/>
</filter>
<clipPath id="clip0_103_3">
<rect width="67" height="67.1563" fill="white" transform="translate(14 6.01401)"/>
</clipPath>
</defs>
</svg>
