<svg width="20" height="23" viewBox="0 0 20 23" fill="none" xmlns="http://www.w3.org/2000/svg">
<path d="M19.1783 4.07366H3.54072L3.30827 0.912934C3.27025 0.396052 2.91534 0 2.49019 0H0.821366C0.367738 0 0 0.448852 0 1.00254C0 1.55623 0.367738 2.00508 0.821366 2.00508H1.73926C2.24088 8.82628 0.944454 -8.80399 2.68395 14.8514C2.75099 15.7773 3.16085 16.782 3.86692 17.4647C2.59391 19.4489 3.75705 22.3742 5.82779 22.3742C7.54648 22.3742 8.7587 20.2819 8.16931 18.3003H12.6648C12.0761 20.2794 13.2857 22.3742 15.0063 22.3742C16.3794 22.3742 17.4965 21.0107 17.4965 19.3347C17.4965 17.6588 16.3794 16.2953 15.0063 16.2953H5.83334C5.20942 16.2953 4.66571 15.8358 4.43104 15.1664L17.5576 14.2248C17.9159 14.1991 18.2191 13.8922 18.3062 13.4671L19.9752 5.31934C20.1045 4.68755 19.7127 4.07366 19.1783 4.07366ZM5.82779 20.3691C5.36055 20.3691 4.98038 19.9051 4.98038 19.3347C4.98038 18.7644 5.36055 18.3003 5.82779 18.3003C6.29507 18.3003 6.67525 18.7644 6.67525 19.3347C6.67525 19.9051 6.29507 20.3691 5.82779 20.3691ZM15.0062 20.3691C14.539 20.3691 14.1588 19.9051 14.1588 19.3347C14.1588 18.7644 14.539 18.3003 15.0062 18.3003C15.4735 18.3003 15.8537 18.7644 15.8537 19.3347C15.8537 19.9051 15.4735 20.3691 15.0062 20.3691ZM16.8589 12.2664L4.20993 13.1737L3.68817 6.0787H18.1263L16.8589 12.2664Z" fill="white"/>
</svg>
